HIERARCHY
ROOT Hips
{
	OFFSET 0.000000 1.471914 24.280096
	CHANNELS 6 Xposition Yposition Zposition Xrotation Yrotation Zrotation
	JOINT Spine
	{
		OFFSET 0.000000 0.900110 1.860670
		CHANNELS 6 Xposition Yposition Zposition Xrotation Yrotation Zrotation
		JOINT Spine1
		{
			OFFSET 0.000000 0.400320 2.270309
			CHANNELS 6 Xposition Yposition Zposition Xrotation Yrotation Zrotation
			JOINT Spine2
			{
				OFFSET 0.000000 0.200920 2.296560
				CHANNELS 6 Xposition Yposition Zposition Xrotation Yrotation Zrotation
				JOINT Spine3
				{
					OFFSET 0.000000 0.000000 2.305330
					CHANNELS 6 Xposition Yposition Zposition Xrotation Yrotation Zrotation
					JOINT Neck
					{
						OFFSET 0.000000 -0.864490 6.051487
						CHANNELS 6 Xposition Yposition Zposition Xrotation Yrotation Zrotation
						JOINT Head
						{
							OFFSET 0.000000 -0.550429 3.121674
							CHANNELS 6 Xposition Yposition Zposition Xrotation Yrotation Zrotation
							End Site
							{
								OFFSET 0.000000 0.000000 3.731750
							}
						}
					}
					JOINT RightShoulder
					{
						OFFSET -0.788280 -1.313800 4.256718
						CHANNELS 6 Xposition Yposition Zposition Xrotation Yrotation Zrotation
						JOINT RightArm
						{
							OFFSET -3.915130 0.000000 0.000000
							CHANNELS 6 Xposition Yposition Zposition Xrotation Yrotation Zrotation
							JOINT RightForeArm
							{
								OFFSET -6.914910 0.000000 0.000000
								CHANNELS 6 Xposition Yposition Zposition Xrotation Yrotation Zrotation
								JOINT RightHand
								{
									OFFSET -6.096219 0.000000 0.000000
									CHANNELS 6 Xposition Yposition Zposition Xrotation Yrotation Zrotation
									JOINT RightHandEnd
									{
										OFFSET -1.749950 0.000000 0.000000
										CHANNELS 6 Xposition Yposition Zposition Xrotation Yrotation Zrotation
										End Site
										{
											OFFSET -1.749950 0.000000 0.000000
										}
									}
									JOINT RightHandThumb1
									{
										OFFSET -0.699980 -1.166630 -0.466648
										CHANNELS 6 Xposition Yposition Zposition Xrotation Yrotation Zrotation
										End Site
										{
											OFFSET -1.690319 -0.452920 0.000000
										}
									}
								}
							}
						}
					}
					JOINT LeftShoulder
					{
						OFFSET 0.788280 -1.313800 4.256718
						CHANNELS 6 Xposition Yposition Zposition Xrotation Yrotation Zrotation
						JOINT LeftArm
						{
							OFFSET 3.915130 0.000000 0.000000
							CHANNELS 6 Xposition Yposition Zposition Xrotation Yrotation Zrotation
							JOINT LeftForeArm
							{
								OFFSET 6.914910 0.000000 0.000000
								CHANNELS 6 Xposition Yposition Zposition Xrotation Yrotation Zrotation
								JOINT LeftHand
								{
									OFFSET 6.096219 0.000000 0.000000
									CHANNELS 6 Xposition Yposition Zposition Xrotation Yrotation Zrotation
									JOINT LeftHandEnd
									{
										OFFSET 1.749950 0.000000 0.000000
										CHANNELS 6 Xposition Yposition Zposition Xrotation Yrotation Zrotation
										End Site
										{
											OFFSET 1.749950 0.000000 0.000000
										}
									}
									JOINT LeftHandThumb1
									{
										OFFSET 0.699980 -1.166630 -0.466648
										CHANNELS 6 Xposition Yposition Zposition Xrotation Yrotation Zrotation
										End Site
										{
											OFFSET 1.690319 -0.452920 0.000000
										}
									}
								}
							}
						}
					}
				}
			}
		}
	}
	JOINT RightUpLeg
	{
		OFFSET -2.338570 -0.252550 -0.551512
		CHANNELS 6 Xposition Yposition Zposition Xrotation Yrotation Zrotation
		JOINT RightLeg
		{
			OFFSET 0.000000 0.000000 -10.744959
			CHANNELS 6 Xposition Yposition Zposition Xrotation Yrotation Zrotation
			JOINT RightFoot
			{
				OFFSET 0.000000 -0.000001 -10.930849
				CHANNELS 6 Xposition Yposition Zposition Xrotation Yrotation Zrotation
				JOINT RightToeBase
				{
					OFFSET 0.000000 -4.087269 -1.487650
					CHANNELS 6 Xposition Yposition Zposition Xrotation Yrotation Zrotation
					End Site
					{
						OFFSET 0.000000 -1.891870 0.000000
					}
				}
			}
		}
	}
	JOINT LeftUpLeg
	{
		OFFSET 2.338570 -0.252550 -0.551512
		CHANNELS 6 Xposition Yposition Zposition Xrotation Yrotation Zrotation
		JOINT LeftLeg
		{
			OFFSET 0.000000 0.000000 -10.744959
			CHANNELS 6 Xposition Yposition Zposition Xrotation Yrotation Zrotation
			JOINT LeftFoot
			{
				OFFSET 0.000000 -0.000001 -10.930849
				CHANNELS 6 Xposition Yposition Zposition Xrotation Yrotation Zrotation
				JOINT LeftToeBase
				{
					OFFSET 0.000000 -4.087269 -1.487650
					CHANNELS 6 Xposition Yposition Zposition Xrotation Yrotation Zrotation
					End Site
					{
						OFFSET 0.000000 -1.891870 0.000000
					}
				}
			}
		}
	}
}
MOTION
Frames: 6
Frame Time: 0.041667
0.000112 26.845078 33.832703 -5.628725 -39.038247 52.520473 -0.000008 0.900098 1.860711 19.540854 11.201682 -3.894964 0.000003 0.400246 2.270323 0.000006 -0.000000 0.000011 0.000010 0.200898 2.296568 -0.000001 0.000001 -0.000002 0.000020 0.000022 2.305306 -0.000016 0.000003 -8.240510 -0.000022 -0.864473 6.051417 69.870458 31.161471 -304.635289 0.000040 -0.550415 3.121670 -0.000010 -0.000002 0.000001 -0.788281 -1.313732 4.256848 -242.333800 -24.539610 12.699886 -3.915142 -0.000032 -0.000000 -0.000003 -0.000001 0.000003 -6.914902 -0.000009 -0.000006 0.000023 0.000101 -23.817933 -6.096180 0.000039 0.000034 -0.000050 -0.000016 -0.000073 -1.749882 -0.000051 0.000015 0.000002 -0.000001 -0.000002 -0.699975 -1.166609 -0.466662 -0.000009 -0.000005 -0.000006 0.788254 -1.313752 4.256785 -385.403724 -31.306766 75.390522 3.915168 0.000011 -0.000042 0.000010 -0.000002 -0.000002 6.914953 -0.000059 0.000008 -0.000048 0.000050 76.894010 6.096247 0.000142 -0.000031 0.000012 0.000000 0.000017 1.749993 0.000010 0.000066 -0.000007 0.000001 0.000001 0.699963 -1.166620 -0.466619 0.000020 0.000003 -0.000032 -2.338594 -0.252545 -0.551495 -24.337371 -4.067670 4.924584 0.000009 -0.000021 -10.744962 83.329394 -2.673605 -14.629610 -0.000021 0.000081 -10.930836 0.000007 -0.000005 -0.000001 0.000015 -4.087231 -1.487631 0.000001 0.000002 -0.000002 2.338567 -0.252525 -0.551488 -15.168646 -3.428971 3.184256 -0.000001 -0.000022 -10.744922 80.837782 9.994141 -14.690769 0.000007 0.000014 -10.930868 -0.000009 -0.000003 -0.000005 -0.000027 -4.087198 -1.487640 -0.000007 0.000002 -0.000003 
0.000075 26.844975 33.832298 -3.819855 -39.358053 55.556069 -0.000010 0.900096 1.860708 19.786582 11.200410 -3.958387 0.000001 0.400249 2.270323 0.000002 -0.000000 0.000013 0.000013 0.200899 2.296576 -0.000001 -0.000000 -0.000001 0.000017 0.000022 2.305314 -0.000020 0.000004 -7.598006 -0.000019 -0.864468 6.051420 39.176565 18.959174 -251.317357 0.000035 -0.550417 3.121670 -0.000008 0.000000 -0.000006 -0.788277 -1.313728 4.256844 -207.682106 -15.851694 29.113022 -3.915142 -0.000032 -0.000000 -0.000004 -0.000000 0.000004 -6.914905 -0.000019 0.000003 0.000018 0.000128 -16.040918 -6.096186 0.000034 0.000040 -0.000054 -0.000016 -0.000073 -1.749887 -0.000064 0.000023 -0.000000 0.000001 -0.000003 -0.699978 -1.166616 -0.466654 -0.000010 -0.000006 -0.000006 0.788256 -1.313748 4.256780 -396.991249 -28.748396 75.387796 3.915168 0.000011 -0.000042 0.000005 0.000001 -0.000000 6.914952 -0.000067 0.000014 -0.000036 0.000044 71.254507 6.096243 0.000138 -0.000032 0.000010 0.000005 0.000020 1.749992 0.000013 0.000061 -0.000003 -0.000001 0.000003 0.699967 -1.166616 -0.466626 0.000022 0.000000 -0.000032 -2.338594 -0.252546 -0.551494 -24.041853 -3.029851 4.877457 0.000013 -0.000025 -10.744961 84.998890 -6.037252 -13.785606 -0.000022 0.000083 -10.930836 0.000005 -0.000008 -0.000000 0.000011 -4.087232 -1.487632 0.000001 -0.000001 -0.000002 2.338567 -0.252529 -0.551489 -14.159843 -1.131787 2.954345 -0.000006 -0.000023 -10.744920 80.120093 8.201799 -12.435700 0.000001 0.000014 -10.930861 -0.000005 -0.000003 -0.000001 -0.000026 -4.087202 -1.487638 -0.000001 0.000004 -0.000001 
-0.000095 26.844959 33.832176 -3.225417 -38.335731 62.112333 -0.000009 0.900096 1.860711 17.267367 9.569694 -1.871825 0.000004 0.400247 2.270326 0.000003 -0.000000 0.000012 0.000010 0.200897 2.296577 0.000002 -0.000001 -0.000001 0.000017 0.000021 2.305310 -0.000020 0.000004 -7.661089 -0.000022 -0.864468 6.051414 26.441267 4.910790 -182.299197 0.000035 -0.550416 3.121666 -0.000007 -0.000001 -0.000004 -0.788280 -1.313730 4.256837 -202.568357 -17.572009 41.465590 -3.915140 -0.000027 -0.000004 -0.000001 0.000002 0.000003 -6.914904 -0.000015 -0.000005 0.000021 0.000124 -15.615597 -6.096182 0.000036 0.000036 -0.000057 -0.000020 -0.000073 -1.749889 -0.000057 0.000019 0.000005 -0.000000 -0.000000 -0.699979 -1.166612 -0.466661 -0.000007 -0.000001 -0.000003 0.788254 -1.313754 4.256784 -400.016777 -31.397519 72.733305 3.915164 0.000007 -0.000042 0.000008 -0.000000 -0.000002 6.914952 -0.000058 0.000006 -0.000006 -0.000002 49.388876 6.096249 0.000142 -0.000032 0.000009 -0.000001 0.000017 1.749992 0.000011 0.000065 -0.000004 -0.000000 -0.000000 0.699965 -1.166617 -0.466624 0.000024 0.000001 -0.000031 -2.338596 -0.252546 -0.551498 -23.636332 -3.498920 2.533733 0.000012 -0.000023 -10.744959 84.616659 -7.845110 -9.315497 -0.000020 0.000083 -10.930835 0.000009 -0.000006 -0.000004 0.000013 -4.087234 -1.487634 0.000001 -0.000002 -0.000000 2.338568 -0.252527 -0.551487 -14.287833 0.320024 1.580998 -0.000001 -0.000022 -10.744920 78.946981 5.051012 -5.718163 0.000006 0.000013 -10.930864 -0.000007 -0.000003 -0.000002 -0.000027 -4.087196 -1.487638 -0.000006 0.000001 -0.000002 
-0.000069 26.844978 33.832195 -3.650607 -37.102107 60.408802 -0.000007 0.900092 1.860713 17.097049 7.867248 -2.197569 0.000005 0.400250 2.270328 0.000003 -0.000000 0.000007 0.000008 0.200901 2.296579 -0.000003 -0.000000 -0.000001 0.000015 0.000023 2.305303 -0.000018 0.000001 -9.038793 -0.000018 -0.864468 6.051422 28.980209 9.908668 -199.345519 0.000041 -0.550418 3.121670 -0.000009 -0.000002 -0.000007 -0.788276 -1.313731 4.256838 -206.560275 -18.063800 40.149365 -3.915145 -0.000031 -0.000000 0.000000 -0.000002 0.000004 -6.914903 -0.000017 -0.000001 0.000021 0.000112 -20.527068 -6.096181 0.000037 0.000029 -0.000050 -0.000015 -0.000070 -1.749886 -0.000061 0.000022 -0.000002 0.000002 0.000000 -0.699980 -1.166619 -0.466659 -0.000012 0.000000 -0.000007 0.788257 -1.313754 4.256783 -393.495285 -4.208318 78.927590 3.915166 0.000014 -0.000038 0.000007 0.000002 -0.000003 6.914954 -0.000065 0.000008 -0.000008 0.000010 52.782008 6.096242 0.000139 -0.000030 0.000016 0.000003 0.000018 1.749997 0.000004 0.000064 -0.000004 -0.000005 0.000003 0.699968 -1.166624 -0.466620 0.000020 0.000004 -0.000029 -2.338597 -0.252546 -0.551497 -23.329599 -4.893883 2.999711 0.000011 -0.000027 -10.744958 82.870180 -6.654441 -11.768098 -0.000025 0.000085 -10.930836 0.000005 -0.000001 -0.000005 0.000015 -4.087233 -1.487629 0.000002 -0.000000 -0.000004 2.338566 -0.252532 -0.551488 -14.662744 -1.706807 1.936082 0.000004 -0.000024 -10.744924 78.182116 8.024486 -8.836812 0.000005 0.000014 -10.930869 -0.000003 -0.000003 -0.000002 -0.000029 -4.087199 -1.487639 -0.000004 0.000003 -0.000000 
-0.000048 26.844982 33.832153 -5.747144 -35.510256 59.822307 -0.000007 0.900097 1.860713 16.867326 7.473091 -1.910039 0.000005 0.400247 2.270324 0.000004 0.000000 0.000008 0.000010 0.200896 2.296574 0.000001 -0.000001 0.000000 0.000018 0.000020 2.305310 -0.000018 -0.000000 -9.378009 -0.000018 -0.864468 6.051410 32.335215 12.870767 -197.687927 0.000040 -0.550415 3.121673 -0.000009 -0.000001 -0.000003 -0.788279 -1.313728 4.256833 -216.492736 -22.184753 39.958519 -3.915140 -0.000029 0.000011 0.000002 -0.000002 0.000005 -6.914903 -0.000015 0.000002 0.000020 0.000127 -14.752348 -6.096185 0.000040 0.000036 -0.000056 -0.000015 -0.000075 -1.749887 -0.000061 0.000019 0.000003 0.000003 -0.000001 -0.699982 -1.166618 -0.466658 -0.000012 -0.000004 -0.000005 0.788259 -1.313752 4.256777 -391.745554 8.023238 79.468623 3.915166 0.000010 -0.000046 0.000006 0.000001 -0.000000 6.914954 -0.000064 0.000004 -0.000009 -0.000004 48.414894 6.096242 0.000140 -0.000026 0.000012 -0.000007 0.000021 1.749994 0.000006 0.000060 -0.000004 0.000002 0.000000 0.699970 -1.166627 -0.466628 0.000020 -0.000004 -0.000030 -2.338593 -0.252551 -0.551488 -24.940477 -6.488865 2.817589 0.000011 -0.000026 -10.744961 82.889571 -5.758801 -12.440265 -0.000019 0.000082 -10.930835 0.000007 -0.000003 0.000002 0.000010 -4.087233 -1.487633 0.000005 0.000001 0.000002 2.338569 -0.252529 -0.551483 -14.958808 -3.724836 1.746622 0.000004 -0.000020 -10.744922 76.803975 6.975684 -9.878974 0.000006 0.000014 -10.930865 -0.000003 -0.000004 -0.000002 -0.000026 -4.087199 -1.487638 -0.000003 -0.000000 -0.000005 
-0.000068 26.844971 33.832092 -4.577478 -35.607603 60.720341 -0.000011 0.900096 1.860713 17.338896 6.037410 -1.879305 0.000003 0.400247 2.270328 0.000003 -0.000000 0.000011 0.000013 0.200901 2.296579 -0.000003 0.000001 -0.000001 0.000015 0.000023 2.305306 -0.000020 0.000003 -9.173861 -0.000020 -0.864468 6.051418 30.583767 11.099773 -189.660256 0.000040 -0.550422 3.121677 -0.000008 -0.000000 -0.000006 -0.788281 -1.313732 4.256836 -224.596591 -27.649080 38.021822 -3.915141 -0.000027 0.000004 0.000001 -0.000002 0.000004 -6.914898 -0.000016 -0.000001 0.000021 0.000127 -14.309684 -6.096183 0.000039 0.000033 -0.000049 -0.000015 -0.000069 -1.749890 -0.000055 0.000022 -0.000000 0.000002 -0.000003 -0.699978 -1.166609 -0.466659 -0.000007 -0.000003 -0.000010 0.788257 -1.313751 4.256779 -393.787153 14.264207 79.952084 3.915166 0.000011 -0.000042 0.000002 -0.000003 0.000000 6.914951 -0.000067 0.000000 -0.000002 -0.000010 46.223961 6.096247 0.000138 -0.000036 0.000016 0.000006 0.000017 1.749995 0.000008 0.000064 -0.000003 -0.000002 0.000000 0.699962 -1.166620 -0.466617 0.000024 -0.000001 -0.000029 -2.338593 -0.252549 -0.551489 -25.433533 -6.822595 2.750588 0.000009 -0.000027 -10.744962 83.696612 -5.528174 -12.510571 -0.000024 0.000082 -10.930835 0.000009 -0.000006 -0.000001 0.000012 -4.087236 -1.487634 0.000006 0.000003 0.000001 2.338568 -0.252531 -0.551486 -15.479244 -3.914316 1.729043 0.000002 -0.000018 -10.744919 77.881136 7.549984 -9.840662 0.000005 0.000013 -10.930867 -0.000002 -0.000003 0.000001 -0.000025 -4.087202 -1.487638 0.000001 0.000002 -0.000001 
